<?xml version="1.0" encoding="utf-8"?>
<!-- Generator: Adobe Illustrator 26.0.0, SVG Export Plug-In . SVG Version: 6.00 Build 0)  -->
<svg version="1.1" id="Camada_1" xmlns="http://www.w3.org/2000/svg" xmlns:xlink="http://www.w3.org/1999/xlink" x="0px" y="0px"
	 viewBox="0 0 195 195" style="enable-background:new 0 0 195 195;" xml:space="preserve">
<style type="text/css">
	.st0{fill:#E9CF49;}
</style>
<circle class="st0" cx="97.5" cy="97.5" r="97.5"/>
<g>
	<path d="M104.9,27.9c-2.2-0.2-3.8-1.1-4.9-2.7c-1.1-1.6-1.6-3.6-1.3-6.1c0.2-2.4,1.1-4.3,2.5-5.7c1.4-1.3,3.2-1.9,5.3-1.7
		c1.7,0.2,3.1,0.8,4.2,1.9s1.7,2.4,1.8,4l-2-0.2c-0.2-1-0.6-1.9-1.4-2.6c-0.8-0.7-1.7-1.1-2.8-1.2c-1.5-0.2-2.8,0.3-3.8,1.3
		c-1,1-1.6,2.5-1.8,4.4c-0.2,1.9,0.1,3.5,0.9,4.7c0.8,1.2,2,1.9,3.5,2.1c1.1,0.1,2.1-0.1,3-0.5c0.8-0.4,1.4-1.1,1.8-2.1l2,0.2
		c-0.5,1.5-1.4,2.6-2.6,3.3C108.1,27.8,106.6,28.1,104.9,27.9z"/>
	<path d="M118.4,15.9c1.7-1,3.6-1.1,5.7-0.5c2.1,0.7,3.6,1.9,4.3,3.7c0.8,1.8,0.8,3.9,0,6.2c-0.8,2.4-2,4-3.7,5
		c-1.7,1-3.6,1.1-5.7,0.4s-3.6-1.9-4.4-3.7c-0.8-1.8-0.8-3.9,0-6.2C115.5,18.6,116.7,16.9,118.4,15.9z M126.6,20
		c-0.5-1.4-1.6-2.3-3.1-2.8c-1.5-0.5-2.9-0.3-4.1,0.4s-2.2,2.1-2.8,3.9c-0.6,1.8-0.6,3.4-0.1,4.8c0.5,1.4,1.6,2.3,3.1,2.8
		c1.5,0.5,2.9,0.3,4.1-0.4c1.2-0.8,2.2-2.1,2.8-3.9C127.1,23,127.1,21.4,126.6,20z"/>
	<path d="M129.1,34.6l-1.7-1l7.9-13.5l1.6,1l1.2,15l0.1,0l6.2-10.6l1.7,1l-7.9,13.5l-1.6-1l-1.2-14.9l-0.1,0L129.1,34.6z"/>
	<path d="M144.5,45.3L143,44l9.2-10.4l-3.7-3.3l1.2-1.3l8.9,7.9l-1.2,1.3l-3.7-3.3L144.5,45.3z"/>
	<path d="M155.2,47.2l-4.8,3.9l-1.2-1.5l12.2-9.8l3.7,4.6c0.9,1.2,1.4,2.4,1.3,3.6c-0.1,1.2-0.7,2.3-1.8,3.2
		c-0.9,0.7-1.8,1.1-2.7,1.1c-1,0.1-1.9-0.2-2.7-0.8l-2.8,6.9l-1.4-1.8l2.7-6.5L155.2,47.2z M161.2,42.4l-4.7,3.8l2.3,2.9
		c0.6,0.8,1.3,1.2,2.1,1.3c0.7,0.1,1.5-0.2,2.2-0.8c0.7-0.6,1.1-1.3,1.2-2c0.1-0.8-0.2-1.6-0.9-2.4L161.2,42.4z"/>
	<path d="M161.7,68.5l3.2-3.5l-2.9-5.5l-4.7,0.7l-1-1.8l16.5-2.3l0.9,1.7l-11.1,12.5L161.7,68.5z M171.2,58.1l-7.5,1.2l2.4,4.5
		L171.2,58.1L171.2,58.1z"/>
	<path d="M164.1,75.1l-0.6-1.8l13.1-4.6l-1.6-4.7l1.7-0.6l3.9,11.2l-1.7,0.6l-1.6-4.7L164.1,75.1z"/>
	<path d="M169.3,90.4l-1.7,0.3l-1.6-9.6l15.5-2.6l1.6,9.6l-1.7,0.3l-1.3-7.6l-5,0.8l1.2,7.2l-1.7,0.3l-1.2-7.2l-5.3,0.9L169.3,90.4z
		"/>
	<path d="M173.3,99.4l-0.2-7.1l1.8,0l0.2,7.1L173.3,99.4z"/>
	<path d="M165.5,116.8l0.3-1.8l11.9,2l0-0.1l-11-6.9l0.3-1.6l12.6-2.9l0-0.1l-11.9-2l0.3-1.8l15.5,2.6l-0.4,2.2l-13.8,3.2l0,0.1
		l12,7.5l-0.4,2.2L165.5,116.8z"/>
	<path d="M162.7,128.6l-1.6-0.6l3.5-9l14.6,5.7l-3.5,9L174,133l2.8-7.2l-4.7-1.8l-2.7,6.8l-1.6-0.6l2.7-6.8l-5-2L162.7,128.6z"/>
</g>
</svg>
